<svg width="189" height="207" viewBox="0 0 189 207" fill="none" xmlns="http://www.w3.org/2000/svg">
<path d="M185.016 171.271L131.615 205.558C129.14 207.147 126.05 207.154 123.569 205.576L4.12706 129.61C2.17968 128.371 0.964627 126.147 0.911508 123.722L0.687683 113.58L61.3774 79.4636L188.049 154.916V165.538C188.048 167.886 186.897 170.063 185.016 171.271Z" fill="#1B1B25"/>
<path d="M185.765 158.035L133.541 191.643C129.608 194.174 124.695 194.192 120.746 191.689L3.06118 117.098C-0.126525 115.078 -0.0986758 110.128 3.11172 108.149L57.0789 74.8793C59.7385 73.2398 63.0134 73.2442 65.6689 74.8914L185.7 149.35C188.802 151.275 188.838 156.058 185.765 158.035Z" fill="#292930"/>
<path d="M13.2275 117.65L69.8167 82.106L169.585 143.919L111.29 179.706L13.2275 117.65Z" fill="white"/>
<path d="M151.038 171.089C147.114 171.089 143.921 168.941 143.921 166.301C143.921 163.66 147.113 161.511 151.038 161.511C154.963 161.511 158.155 163.66 158.155 166.301C158.155 168.941 154.963 171.089 151.038 171.089ZM151.038 162.063C147.398 162.063 144.437 163.964 144.437 166.301C144.437 168.636 147.398 170.537 151.038 170.537C154.678 170.537 157.639 168.637 157.639 166.301C157.639 163.965 154.678 162.063 151.038 162.063Z" fill="#CCCCCC"/>
<path d="M156.776 184.913C156.609 184.913 156.441 184.869 156.285 184.779C155.943 184.583 155.739 184.217 155.739 183.801V181.812C155.739 181.358 155.953 180.943 156.311 180.701L166.316 173.977C166.576 173.802 166.893 173.789 167.165 173.941C167.438 174.093 167.61 174.38 167.625 174.709L167.712 176.573C167.733 177.048 167.517 177.506 167.147 177.768L157.347 184.727C157.172 184.851 156.975 184.913 156.776 184.913ZM166.59 174.445L156.586 181.169C156.379 181.309 156.255 181.549 156.255 181.812V183.801C156.255 184.01 156.357 184.194 156.529 184.293C156.699 184.39 156.899 184.381 157.062 184.266L166.863 177.308C167.082 177.153 167.21 176.881 167.197 176.6L167.111 174.736C167.104 174.604 167.038 174.493 166.928 174.431C166.818 174.369 166.695 174.375 166.59 174.445Z" fill="#CCCCCC"/>
<path d="M25.3476 102.678C25.2573 102.678 25.1696 102.627 25.1222 102.537C25.0526 102.404 25.0969 102.236 25.2207 102.161L43.6486 91.101C43.7734 91.0264 43.9297 91.0739 43.9999 91.2065C44.0695 91.3395 44.0251 91.508 43.9014 91.5825L25.4734 102.643C25.4332 102.666 25.3899 102.678 25.3476 102.678Z" fill="#CCCCCC"/>
<path d="M32.2504 143.041C32.0183 143.041 31.7873 142.974 31.5784 142.84L16.0303 132.878C15.6156 132.613 15.3717 132.127 15.3944 131.609C15.4161 131.115 15.6719 130.678 16.0783 130.442C16.4846 130.206 16.9658 130.215 17.365 130.464L32.9224 140.218C33.3443 140.483 33.5918 140.971 33.5691 141.494L33.5598 141.702C33.5382 142.2 33.2803 142.637 32.8703 142.873C32.6743 142.985 32.4619 143.041 32.2504 143.041ZM15.9091 131.635C15.8952 131.948 16.0432 132.244 16.2949 132.404L31.843 142.366C32.0849 142.52 32.3773 142.529 32.6259 142.386C32.8744 142.243 33.0307 141.978 33.0441 141.676L33.0534 141.468C33.0673 141.151 32.9173 140.855 32.6615 140.695L17.104 130.941C16.8616 130.79 16.5708 130.784 16.3237 130.928C16.0772 131.071 15.9225 131.335 15.9091 131.635Z" fill="#CCCCCC"/>
<path d="M52.8244 155.249C52.5996 155.249 52.3752 155.186 52.171 155.06L36.4697 145.376C36.0509 145.118 35.7997 144.636 35.8142 144.119C35.8281 143.625 36.0767 143.183 36.4795 142.94C36.8817 142.696 37.3629 142.696 37.7662 142.939L53.4732 152.414C53.8987 152.67 54.154 153.155 54.1395 153.678L54.1338 153.886C54.1199 154.384 53.8687 154.826 53.4629 155.069C53.2623 155.189 53.0436 155.249 52.8244 155.249ZM36.3299 144.135C36.3211 144.449 36.4733 144.741 36.727 144.897L52.4283 154.581C52.6728 154.732 52.9657 154.733 53.2117 154.587C53.4577 154.44 53.6099 154.171 53.6181 153.87L53.6238 153.662C53.6326 153.344 53.4778 153.051 53.22 152.894L37.513 143.42C37.2691 143.272 36.9777 143.273 36.7327 143.421C36.4888 143.568 36.3382 143.836 36.3299 144.135Z" fill="#CCCCCC"/>
<g opacity="0.28">
<path d="M159.483 146.711L151.998 142.424L138.629 134.293C137.923 133.863 137.056 133.865 136.351 134.297L100.914 156.023C99.6471 156.8 99.6404 158.754 100.902 159.541L111.135 165.921C112.353 166.681 113.858 166.673 115.07 165.904L146.234 146.09L159.483 146.711Z" fill="#9FBFFF"/>
<path d="M160.614 141.83L153.129 137.543L139.76 129.411C139.053 128.982 138.187 128.983 137.481 129.416L102.045 151.141C100.778 151.918 100.771 153.872 102.033 154.659L112.265 161.04C113.483 161.799 114.989 161.792 116.2 161.022L147.365 141.208L160.614 141.83Z" fill="#444CE7"/>
<path d="M107.782 152.797C107.695 152.797 107.61 152.75 107.561 152.663C107.488 152.533 107.527 152.363 107.649 152.284L126.1 140.383C126.22 140.306 126.38 140.346 126.454 140.477C126.527 140.608 126.488 140.778 126.365 140.856L107.915 152.757C107.874 152.784 107.828 152.797 107.782 152.797Z" fill="white"/>
<path d="M111.046 155.091C110.958 155.091 110.872 155.043 110.824 154.957C110.751 154.826 110.791 154.656 110.914 154.578L133.078 140.426C133.199 140.348 133.358 140.39 133.432 140.522C133.505 140.653 133.465 140.823 133.342 140.901L111.177 155.053C111.136 155.079 111.091 155.091 111.046 155.091Z" fill="white"/>
<path d="M114.554 157.193C114.467 157.193 114.382 157.146 114.333 157.061C114.259 156.931 114.297 156.761 114.419 156.681L134.82 143.299C134.94 143.22 135.1 143.26 135.174 143.39C135.249 143.52 135.211 143.69 135.089 143.77L114.688 157.153C114.646 157.18 114.6 157.193 114.554 157.193Z" fill="white"/>
<path d="M140.213 140.985C140.199 140.985 140.185 140.985 140.171 140.985C138.84 140.976 137.588 140.557 136.646 139.805C135.68 139.034 135.152 138.005 135.158 136.909C135.17 134.69 137.417 132.897 140.176 132.897C140.189 132.897 140.202 132.897 140.216 132.897C141.546 132.906 142.799 133.324 143.741 134.077C144.707 134.848 145.235 135.877 145.229 136.973C145.223 138.069 144.683 139.091 143.709 139.85C142.769 140.582 141.528 140.985 140.213 140.985ZM140.176 133.449C137.7 133.449 135.684 134.997 135.674 136.912C135.669 137.829 136.123 138.699 136.954 139.363C137.809 140.045 138.953 140.426 140.174 140.433C141.387 140.433 142.544 140.075 143.406 139.405C144.244 138.751 144.709 137.888 144.714 136.971C144.719 136.054 144.264 135.185 143.433 134.52C142.579 133.838 141.435 133.457 140.214 133.45C140.201 133.449 140.188 133.449 140.176 133.449Z" fill="white"/>
<path d="M113.725 118.468L106.241 114.181L92.8715 106.05C92.1649 105.62 91.2985 105.621 90.593 106.054L55.1564 127.779C53.8892 128.556 53.8825 130.51 55.1445 131.297L65.3771 137.677C66.5947 138.437 68.1006 138.429 69.3121 137.66L100.476 117.846L113.725 118.468Z" fill="#9FBFFF"/>
<path d="M91.7231 101.172L56.2865 122.898C55.0194 123.674 55.0127 125.628 56.2747 126.415L66.5072 132.796C67.7248 133.555 69.2307 133.548 70.4422 132.778L107.371 109.299L94.0016 101.168C93.2946 100.738 92.4287 100.74 91.7231 101.172Z" fill="#444CE7"/>
<path d="M114.855 113.586L107.371 109.299L101.607 112.964L114.855 113.586Z" fill="#444CE7"/>
<path d="M62.0248 124.554C61.9377 124.554 61.8521 124.506 61.8036 124.42C61.7298 124.29 61.7696 124.12 61.8913 124.041L80.3419 112.14C80.4636 112.062 80.6219 112.103 80.6957 112.234C80.7694 112.365 80.7297 112.535 80.608 112.613L62.1574 124.514C62.1156 124.54 62.0697 124.554 62.0248 124.554Z" fill="white"/>
<path d="M65.288 126.848C65.2003 126.848 65.1147 126.8 65.0663 126.713C64.9935 126.582 65.0338 126.413 65.156 126.335L87.3204 112.184C87.4431 112.105 87.6009 112.149 87.6742 112.28C87.7469 112.41 87.7072 112.58 87.5844 112.658L65.4206 126.81C65.3783 126.835 65.3329 126.848 65.288 126.848Z" fill="white"/>
<path d="M68.7957 128.95C68.7086 128.95 68.624 128.903 68.5755 128.818C68.5007 128.688 68.5394 128.518 68.6606 128.438L89.0612 115.055C89.1834 114.975 89.3412 115.017 89.416 115.146C89.4903 115.276 89.4521 115.446 89.3309 115.526L68.9303 128.91C68.888 128.937 68.8411 128.95 68.7957 128.95Z" fill="white"/>
<path d="M94.4553 112.741C94.4408 112.741 94.4269 112.741 94.413 112.741C93.0819 112.732 91.8302 112.313 90.888 111.561C89.922 110.79 89.3934 109.761 89.3996 108.664C89.412 106.435 91.6636 104.616 94.4578 104.653C95.7889 104.661 97.0406 105.08 97.9828 105.833C98.9488 106.603 99.4774 107.632 99.4712 108.729C99.465 109.826 98.9251 110.847 97.9509 111.606C97.0102 112.339 95.7704 112.741 94.4553 112.741ZM94.4171 105.205C91.9421 105.205 89.9261 106.752 89.9153 108.668C89.9102 109.584 90.365 110.455 91.1964 111.118C92.0509 111.8 93.1943 112.181 94.4161 112.189C95.6456 112.185 96.7853 111.831 97.6476 111.16C98.4857 110.507 98.9503 109.642 98.9555 108.726C98.9607 107.809 98.5058 106.939 97.6744 106.275C96.8199 105.592 95.676 105.212 94.4547 105.205C94.4424 105.205 94.4295 105.205 94.4171 105.205Z" fill="white"/>
<path d="M119.689 131.457L108.151 124.439C107.444 124.009 106.578 124.011 105.872 124.444L70.4357 146.169C69.1685 146.946 69.1618 148.9 70.4238 149.687L89.5867 162.196L87.5888 154.144L119.71 133.723C120.516 133.209 120.505 131.954 119.689 131.457Z" fill="#9FBFFF"/>
<path d="M120.185 127.091L108.63 120.063C107.923 119.633 107.057 119.635 106.351 120.067L70.9146 141.793C69.6474 142.57 69.6407 144.524 70.9027 145.311L81.1352 151.691C81.3503 151.825 81.5767 151.927 81.8067 152.013L81.7959 152.017L90.0651 157.819L88.0671 149.767L120.204 129.335C121.005 128.827 120.994 127.583 120.185 127.091Z" fill="#FFB54A"/>
<path d="M84.4559 140.921C84.3682 140.921 84.2826 140.872 84.2341 140.786C84.1614 140.655 84.2016 140.485 84.3238 140.407L106.488 126.256C106.609 126.178 106.768 126.22 106.841 126.352C106.915 126.482 106.875 126.652 106.752 126.73L84.5874 140.882C84.5461 140.908 84.5007 140.921 84.4559 140.921Z" fill="white"/>
<path d="M87.9633 143.022C87.8762 143.022 87.7916 142.975 87.7431 142.89C87.6683 142.76 87.707 142.59 87.8282 142.51L108.229 129.127C108.349 129.048 108.509 129.088 108.584 129.219C108.657 129.349 108.62 129.519 108.498 129.599L88.0979 142.981C88.0556 143.009 88.0092 143.022 87.9633 143.022Z" fill="white"/>
<path d="M75.7499 101.253L64.2116 94.2347C63.505 93.8046 62.6386 93.8062 61.9331 94.2386L26.4965 115.964C25.2293 116.741 25.2226 118.695 26.4846 119.482L45.6475 131.99L43.6496 123.939L75.7706 103.517C76.5777 103.004 76.5663 101.749 75.7499 101.253Z" fill="#9FBFFF"/>
<path d="M76.2451 96.8867L64.6902 89.8588C63.9837 89.4292 63.1172 89.4303 62.4117 89.8632L26.9751 111.589C25.708 112.366 25.7013 114.319 26.9633 115.106L37.1958 121.487C37.4108 121.621 37.6373 121.723 37.8673 121.809L37.8564 121.813L46.1256 127.614L44.1277 119.563L76.2647 99.1309C77.0651 98.6229 77.0542 97.3788 76.2451 96.8867Z" fill="#FFB54A"/>
<path d="M40.5168 110.716C40.4286 110.716 40.343 110.668 40.295 110.581C40.2223 110.451 40.262 110.281 40.3847 110.203L62.5491 96.0511C62.6714 95.9738 62.8297 96.0158 62.9029 96.1472C62.9756 96.2781 62.9359 96.4476 62.8132 96.526L40.6488 110.677C40.607 110.704 40.5611 110.716 40.5168 110.716Z" fill="white"/>
<path d="M44.0244 112.818C43.9377 112.818 43.8526 112.771 43.8041 112.686C43.7294 112.556 43.768 112.386 43.8892 112.306L64.2898 98.9232C64.4116 98.8432 64.5699 98.8846 64.6447 99.0144C64.7194 99.1441 64.6808 99.3142 64.5596 99.3943L44.159 112.778C44.1167 112.805 44.0703 112.818 44.0244 112.818Z" fill="white"/>
</g>
<path d="M175.186 130.693L167.702 126.407L154.333 118.275C153.626 117.845 152.76 117.847 152.054 118.28L116.617 140.005C115.35 140.782 115.344 142.736 116.606 143.523L126.838 149.904C128.056 150.663 129.562 150.656 130.773 149.886L161.937 130.072L175.186 130.693Z" fill="#9FBFFF"/>
<path d="M176.317 125.812L168.832 121.525L155.463 113.394C154.757 112.964 153.89 112.965 153.185 113.398L117.748 135.124C116.481 135.901 116.474 137.854 117.736 138.641L127.969 145.022C129.186 145.781 130.692 145.774 131.904 145.004L163.068 125.191L176.317 125.812Z" fill="#444CE7"/>
<path d="M123.485 136.779C123.398 136.779 123.313 136.732 123.264 136.646C123.191 136.515 123.23 136.345 123.352 136.267L141.802 124.366C141.923 124.289 142.083 124.329 142.156 124.46C142.229 124.59 142.19 124.76 142.068 124.839L123.618 136.74C123.577 136.767 123.531 136.779 123.485 136.779Z" fill="white"/>
<path d="M126.749 139.074C126.662 139.074 126.576 139.026 126.528 138.939C126.454 138.808 126.495 138.639 126.617 138.561L148.782 124.409C148.902 124.332 149.062 124.374 149.135 124.506C149.209 124.636 149.168 124.806 149.046 124.884L126.881 139.036C126.84 139.062 126.795 139.074 126.749 139.074Z" fill="white"/>
<path d="M130.256 141.176C130.17 141.176 130.085 141.129 130.036 141.044C129.962 140.914 130 140.744 130.122 140.664L150.522 127.28C150.642 127.202 150.802 127.242 150.877 127.372C150.951 127.502 150.913 127.672 150.791 127.752L130.391 141.135C130.349 141.163 130.303 141.176 130.256 141.176Z" fill="white"/>
<path d="M155.915 124.967C155.901 124.967 155.888 124.967 155.874 124.967C154.544 124.958 153.291 124.54 152.349 123.787C151.383 123.016 150.855 121.988 150.861 120.891C150.874 118.673 153.121 116.879 155.879 116.879C155.892 116.879 155.906 116.879 155.919 116.879C157.25 116.888 158.502 117.306 159.444 118.059C160.41 118.831 160.938 119.859 160.932 120.955C160.926 122.052 160.386 123.073 159.413 123.832C158.471 124.565 157.231 124.967 155.915 124.967ZM155.878 117.431C153.403 117.431 151.387 118.979 151.376 120.894C151.371 121.81 151.826 122.681 152.657 123.345C153.512 124.027 154.655 124.407 155.877 124.415C155.889 124.415 155.902 124.415 155.915 124.415C157.122 124.415 158.255 124.051 159.108 123.386C159.946 122.732 160.41 121.869 160.416 120.953C160.421 120.036 159.966 119.166 159.135 118.502C158.281 117.819 157.137 117.439 155.915 117.432C155.904 117.431 155.891 117.431 155.878 117.431Z" fill="white"/>
<path d="M129.428 102.449L121.944 98.162L108.574 90.0308C107.868 89.6011 107.002 89.6028 106.296 90.0352L70.8594 111.761C69.5923 112.538 69.5856 114.491 70.8475 115.278L81.0801 121.659C82.2977 122.418 83.8036 122.412 85.0151 121.641L116.179 101.828L129.428 102.449Z" fill="#9FBFFF"/>
<path d="M107.427 85.1534L71.9905 106.879C70.7234 107.656 70.7167 109.61 71.9786 110.396L82.2112 116.777C83.4288 117.537 84.9347 117.529 86.1462 116.76L123.075 93.2808L109.705 85.149C108.999 84.7194 108.132 84.721 107.427 85.1534Z" fill="#444CE7"/>
<path d="M130.559 97.5669L123.074 93.2801L117.31 96.9451L130.559 97.5669Z" fill="#444CE7"/>
<path d="M77.7277 108.535C77.6406 108.535 77.555 108.487 77.5065 108.401C77.4327 108.271 77.4724 108.101 77.5941 108.022L96.0448 96.1209C96.1665 96.0414 96.3248 96.0839 96.3986 96.2148C96.4723 96.3451 96.4326 96.5146 96.3109 96.5936L77.8603 108.495C77.819 108.522 77.7731 108.535 77.7277 108.535Z" fill="white"/>
<path d="M80.991 110.829C80.9033 110.829 80.8177 110.781 80.7693 110.695C80.6965 110.564 80.7368 110.394 80.859 110.316L103.023 96.1643C103.144 96.0875 103.303 96.1289 103.377 96.2604C103.45 96.3912 103.41 96.5608 103.287 96.6392L81.1236 110.791C81.0818 110.817 81.0359 110.829 80.991 110.829Z" fill="white"/>
<path d="M84.4991 112.931C84.4119 112.931 84.3274 112.884 84.2789 112.799C84.2041 112.669 84.2428 112.499 84.364 112.419L104.765 99.0363C104.885 98.9573 105.044 98.997 105.119 99.1274C105.194 99.2571 105.156 99.4278 105.034 99.5073L84.6337 112.891C84.5914 112.918 84.545 112.931 84.4991 112.931Z" fill="white"/>
<path d="M110.158 96.7219C110.144 96.7219 110.13 96.7219 110.116 96.7219C108.786 96.7136 107.534 96.2945 106.591 95.5418C105.625 94.771 105.097 93.7422 105.103 92.6455C105.109 91.5488 105.649 90.5272 106.623 89.7685C107.573 89.0286 108.823 88.6354 110.161 88.6337C111.492 88.642 112.744 89.0611 113.686 89.8138C114.652 90.5847 115.181 91.6134 115.175 92.7101C115.168 93.8068 114.628 94.8284 113.654 95.5871C112.714 96.3199 111.473 96.7219 110.158 96.7219ZM110.119 89.1865C108.912 89.1865 107.78 89.5509 106.927 90.2158C106.088 90.8685 105.624 91.7333 105.619 92.6494C105.614 93.566 106.068 94.4358 106.899 95.1001C107.754 95.7826 108.898 96.1625 110.119 96.1703C110.131 96.1703 110.145 96.1703 110.158 96.1703C111.365 96.1708 112.497 95.8058 113.35 95.1409C114.188 94.4882 114.653 93.6235 114.658 92.7074C114.663 91.7907 114.209 90.921 113.378 90.2567C112.523 89.5741 111.379 89.1942 110.158 89.1865C110.145 89.1865 110.132 89.1865 110.119 89.1865Z" fill="white"/>
<path d="M135.393 115.439L123.854 108.421C123.148 107.991 122.281 107.992 121.576 108.425L86.1392 130.151C84.872 130.927 84.8653 132.881 86.1273 133.668L105.29 146.177L103.292 138.126L135.413 117.703C136.22 117.19 136.209 115.935 135.393 115.439Z" fill="#9FBFFF"/>
<path d="M135.888 111.072L124.333 104.044C123.626 103.615 122.76 103.616 122.054 104.049L86.6178 125.774C85.3507 126.551 85.344 128.505 86.606 129.292L96.8385 135.672C97.0536 135.807 97.28 135.908 97.51 135.994L97.4991 135.998L105.768 141.8L103.77 133.749L135.907 113.316C136.708 112.808 136.697 111.564 135.888 111.072Z" fill="#FFB54A"/>
<path d="M100.159 124.901C100.071 124.901 99.9853 124.853 99.9368 124.767C99.8636 124.636 99.9038 124.466 100.027 124.388L122.191 110.236C122.312 110.159 122.471 110.201 122.545 110.332C122.618 110.463 122.577 110.633 122.455 110.711L100.291 124.863C100.249 124.889 100.204 124.901 100.159 124.901Z" fill="white"/>
<path d="M103.667 127.003C103.58 127.003 103.496 126.956 103.447 126.871C103.372 126.741 103.41 126.571 103.532 126.491L123.933 113.108C124.053 113.03 124.212 113.07 124.288 113.2C124.362 113.33 124.324 113.5 124.202 113.58L103.801 126.963C103.759 126.99 103.713 127.003 103.667 127.003Z" fill="white"/>
<path d="M91.4531 85.2346L79.9147 78.2166C79.2082 77.787 78.3417 77.7881 77.6362 78.221L42.1996 99.9465C40.9325 100.723 40.9258 102.677 42.1877 103.464L61.3506 115.972L59.3527 107.921L91.4737 87.4992C92.2808 86.9856 92.2695 85.731 91.4531 85.2346Z" fill="#9FBFFF"/>
<path d="M91.9488 80.8687L80.394 73.8407C79.6874 73.4111 78.821 73.4127 78.1155 73.8451L42.6789 95.5706C41.4117 96.3476 41.405 98.3013 42.667 99.0882L52.8995 105.469C53.1146 105.603 53.341 105.705 53.571 105.791L53.5602 105.795L61.8293 111.596L59.8314 103.545L91.9684 83.1128C92.7688 82.6048 92.7575 81.3607 91.9488 80.8687Z" fill="#FFB54A"/>
<path d="M56.2196 94.6979C56.132 94.6979 56.0464 94.6498 55.9979 94.5631C55.9252 94.4322 55.9649 94.2627 56.0876 94.1843L78.252 80.0329C78.3742 79.9556 78.5326 79.9975 78.6053 80.1289C78.678 80.2598 78.6383 80.4294 78.5156 80.5078L56.3512 94.6592C56.3104 94.6852 56.2645 94.6979 56.2196 94.6979Z" fill="white"/>
<path d="M59.7274 96.7992C59.6402 96.7992 59.5556 96.7522 59.5071 96.6672C59.4324 96.5374 59.4711 96.3673 59.5922 96.2873L79.9928 82.9039C80.1151 82.8244 80.2729 82.8653 80.3477 82.9951C80.4219 83.1248 80.3838 83.2949 80.2626 83.375L59.862 96.7583C59.8197 96.7859 59.7727 96.7992 59.7274 96.7992Z" fill="white"/>
<g opacity="0.5">
<path d="M145.042 62.4548L143.391 62.4697C139.25 62.5067 135.864 58.9411 135.83 54.5068L135.761 45.5434C135.727 41.1086 139.057 37.4839 143.198 37.4475L158.835 37.3089C158.433 37.2437 158.025 37.2017 157.606 37.2056L141.368 37.3497C137.098 37.3878 133.666 41.1241 133.701 45.6958L133.773 54.9359C133.809 59.5076 137.298 63.7845 141.568 63.7464L143.551 63.7315L149.911 70.1222L155.873 63.6034L151.083 68.8173L145.042 62.4548Z" fill="#9FBFFF"/>
<path d="M149.918 70.5082L143.449 64.0082L141.569 64.0225C139.465 64.0336 137.446 63.0589 135.892 61.2571C134.398 59.5248 133.532 57.2216 133.514 54.9382L133.443 45.6981C133.425 43.4136 134.239 41.2578 135.736 39.6288C137.232 37.9997 139.231 37.0925 141.365 37.0731L157.602 36.929C157.984 36.9218 158.407 36.9605 158.872 37.0356L158.836 37.5845L143.199 37.7236C139.206 37.759 135.985 41.2661 136.018 45.5413L136.087 54.5041C136.12 58.7578 139.363 62.1936 143.328 62.1936C143.348 62.1936 143.368 62.1936 143.388 62.1936L145.146 62.1776L151.079 68.4264L155.688 63.409L156.056 63.7956L156.055 63.7967L149.918 70.5082ZM143.652 63.4543L149.903 69.7357L150.729 68.8317L144.938 62.732L143.394 62.7458C143.372 62.7458 143.35 62.7458 143.329 62.7458C139.081 62.7458 135.608 59.0654 135.573 54.5086L135.503 45.5451C135.475 41.9414 137.606 38.8468 140.6 37.6734C138.896 37.8744 137.322 38.6895 136.104 40.0153C134.705 41.5394 133.943 43.5555 133.959 45.6931L134.031 54.9332C134.048 57.0813 134.865 59.2493 136.272 60.8816C137.713 62.552 139.572 63.4698 141.511 63.4698C141.529 63.4698 141.547 63.4698 141.566 63.4692L143.652 63.4543Z" fill="white"/>
<path d="M166.51 45.2704C166.475 40.8356 163.09 37.2705 158.948 37.3075L158.835 37.3086L143.198 37.4472C139.056 37.4837 135.726 41.1089 135.761 45.5432L135.83 54.5066C135.865 58.9414 139.25 62.5064 143.391 62.4694L145.042 62.4545L151.083 68.8165L155.873 63.6026L157.025 62.3485L159.142 62.3297C163.284 62.2927 166.613 58.668 166.579 54.2338L166.51 45.2704Z" fill="#9FBFFF"/>
<path d="M151.087 69.2079L144.938 62.7322L143.394 62.746C143.372 62.746 143.35 62.746 143.329 62.746C139.081 62.746 135.608 59.0655 135.573 54.5087L135.503 45.5453C135.468 40.9658 138.919 37.2086 143.196 37.171L158.946 37.0313C158.968 37.0313 158.99 37.0313 159.012 37.0313C161.06 37.0313 162.988 37.8762 164.45 39.4158C165.927 40.9713 166.75 43.0504 166.767 45.2686L166.837 54.2315C166.872 58.8115 163.421 62.5682 159.144 62.6063L157.134 62.624L151.087 69.2079ZM145.147 62.1778L151.08 68.4266L156.916 62.0734L159.14 62.0535C163.133 62.0182 166.354 58.5111 166.321 54.2354L166.252 45.2725C166.236 43.2017 165.468 41.2612 164.089 39.8089C162.724 38.3721 160.923 37.583 159.012 37.583C158.992 37.583 158.971 37.583 158.95 37.583L143.2 37.7227C139.207 37.758 135.986 41.2651 136.019 45.5403L136.088 54.5032C136.121 58.7568 139.364 62.1927 143.329 62.1927C143.349 62.1927 143.369 62.1927 143.389 62.1927L145.147 62.1778Z" fill="white"/>
<path d="M145.411 51.3331C144.963 52.3889 143.8 52.8555 142.814 52.3757C141.828 51.8958 141.392 50.6511 141.84 49.5953C142.288 48.5395 143.451 48.0729 144.437 48.5522C145.423 49.0326 145.859 50.2773 145.411 51.3331Z" fill="#9FBFFF"/>
<path d="M143.622 52.8404C143.315 52.8404 143.004 52.7719 142.707 52.6278C141.594 52.0855 141.1 50.6741 141.606 49.4819C141.851 48.9043 142.291 48.463 142.846 48.2405C143.401 48.018 144.003 48.0395 144.543 48.3018C145.657 48.8435 146.151 50.2544 145.646 51.4472V51.4477C145.275 52.3224 144.466 52.8404 143.622 52.8404ZM143.626 48.6403C143.424 48.6403 143.222 48.679 143.027 48.7574C142.602 48.9286 142.264 49.2671 142.075 49.7105C141.687 50.626 142.066 51.7089 142.921 52.1253C143.776 52.5417 144.788 52.1347 145.176 51.2197C145.565 50.3041 145.185 49.2207 144.33 48.8049C144.106 48.695 143.866 48.6403 143.626 48.6403Z" fill="white"/>
<path d="M152.913 51.1036C152.465 52.1595 151.303 52.6261 150.316 52.1468C149.33 51.6669 148.895 50.4222 149.343 49.3664C149.791 48.3106 150.953 47.844 151.939 48.3233C152.925 48.8037 153.361 50.0484 152.913 51.1036Z" fill="#9FBFFF"/>
<path d="M151.125 52.6101C150.818 52.6101 150.507 52.5416 150.21 52.3975C149.671 52.1352 149.259 51.663 149.051 51.0688C148.843 50.4747 148.863 49.8291 149.108 49.2515C149.353 48.6739 149.794 48.2333 150.349 48.0102C150.903 47.7876 151.506 47.8086 152.046 48.0715C152.585 48.3343 152.997 48.8059 153.205 49.4001C153.413 49.9942 153.393 50.6398 153.148 51.2174C152.777 52.0921 151.968 52.6101 151.125 52.6101ZM151.129 48.41C150.927 48.41 150.725 48.4486 150.53 48.527C150.104 48.6982 149.766 49.0362 149.578 49.4796C149.389 49.923 149.373 50.4183 149.533 50.8745C149.694 51.3306 150.009 51.6923 150.424 51.8944C151.278 52.3102 152.29 51.9043 152.679 50.9882C152.867 50.5448 152.882 50.0495 152.723 49.5939C152.563 49.1378 152.247 48.7755 151.832 48.574C151.608 48.4652 151.369 48.41 151.129 48.41Z" fill="white"/>
<path d="M160.235 50.8787C159.787 51.9345 158.625 52.4012 157.639 51.9218C156.653 51.442 156.217 50.1973 156.665 49.1415C157.113 48.0856 158.275 47.619 159.262 48.0989C160.247 48.5782 160.683 49.8229 160.235 50.8787Z" fill="#9FBFFF"/>
<path d="M158.449 52.3876C158.136 52.3876 157.825 52.3164 157.532 52.1734C156.992 51.9105 156.58 51.4389 156.372 50.8448C156.164 50.2506 156.185 49.6051 156.43 49.0274C156.936 47.8347 158.255 47.3062 159.367 47.8474C159.907 48.1097 160.319 48.5818 160.527 49.176C160.735 49.7702 160.714 50.4157 160.469 50.9933C160.224 51.5709 159.784 52.0121 159.229 52.2352C158.976 52.3368 158.712 52.3876 158.449 52.3876ZM158.452 48.187C157.805 48.187 157.184 48.5846 156.899 49.2561C156.711 49.6995 156.695 50.1948 156.855 50.6504C157.015 51.1065 157.331 51.4688 157.745 51.6703C158.159 51.8708 158.621 51.8879 159.048 51.7173C159.473 51.5461 159.811 51.2076 160 50.7641C160.188 50.3207 160.204 49.8248 160.044 49.3687C159.884 48.9126 159.568 48.5509 159.154 48.3488C158.926 48.2395 158.687 48.187 158.452 48.187Z" fill="white"/>
</g>
<path d="M123.688 74.6541L122.357 74.6657C119.018 74.6955 116.29 71.8218 116.262 68.2468L116.206 61.0217C116.178 57.4473 118.863 54.5255 122.201 54.4957L134.805 54.3842C134.482 54.3317 134.152 54.298 133.815 54.3008L120.726 54.4168C117.285 54.4471 114.518 57.4594 114.546 61.1443L114.604 68.5925C114.632 72.2774 117.445 75.7248 120.887 75.6944L122.485 75.6823L127.611 80.8333L132.417 75.5785L128.557 79.7813L123.688 74.6541Z" fill="#C12736"/>
<path d="M140.992 60.8029C140.964 57.2284 138.235 54.3547 134.897 54.384L134.805 54.3851L122.201 54.4966C118.863 54.5265 116.179 57.4482 116.206 61.0226L116.262 68.2477C116.29 71.8222 119.019 74.6959 122.357 74.6666L123.688 74.655L128.557 79.7834L132.418 75.5805L133.347 74.5694L135.053 74.5539C138.392 74.5241 141.076 71.6024 141.048 68.0279L140.992 60.8029Z" fill="#F13C45"/>
<path d="M128.534 71.3615C128.474 71.3615 128.436 71.3278 128.391 71.2886C127.044 70.1036 125.73 68.8247 124.46 67.5877L124.226 67.3608C123.13 66.2945 121.887 64.8267 122.008 62.9249C122.135 60.9507 123.615 59.4636 125.453 59.4636C125.455 59.4636 125.456 59.4636 125.458 59.4636C126.734 59.4653 127.907 60.2202 128.529 61.3931C129.153 60.2229 130.326 59.4714 131.601 59.4714C131.603 59.4714 131.604 59.4714 131.605 59.4714C133.019 59.473 134.334 60.4134 134.877 61.8116C135.061 62.2865 135.148 62.7808 135.135 63.2811C135.086 65.073 133.842 66.4386 132.679 67.5778L132.508 67.7473C129.417 70.7938 128.783 71.3615 128.534 71.3615ZM125.453 60.0153C123.864 60.0153 122.632 61.2539 122.523 62.9619C122.416 64.6273 123.562 65.9686 124.573 66.9516L124.806 67.1791C126.03 68.3702 127.293 69.6 128.585 70.7442C128.865 70.5216 129.71 69.7546 132.157 67.3403L132.33 67.1697C133.465 66.0581 134.576 64.841 134.618 63.2639C134.629 62.8426 134.556 62.4251 134.4 62.0226C133.936 60.8276 132.812 60.0241 131.603 60.0225C131.602 60.0225 131.601 60.0225 131.6 60.0225C130.347 60.0225 129.21 60.8729 128.77 62.1396L128.527 62.836L128.286 62.1391C127.846 60.8701 126.709 60.0164 125.456 60.0153C125.456 60.0153 125.454 60.0153 125.453 60.0153Z" fill="white"/>
<path d="M145.042 96.2416L143.391 96.2565C139.25 96.2929 135.864 92.7279 135.83 88.2936L135.761 79.3302C135.726 74.8954 139.056 71.2707 143.197 71.2343L158.834 71.0957C158.433 71.0305 158.025 70.9885 157.605 70.9924L141.368 71.1365C137.098 71.1746 133.666 74.9114 133.701 79.4826L133.773 88.7227C133.808 93.2944 137.298 97.5713 141.567 97.5332L143.55 97.5183L149.91 103.909L155.872 97.3902L151.083 102.604L145.042 96.2416Z" fill="#3A5CE8"/>
<path d="M166.509 79.0575C166.475 74.6227 163.09 71.0576 158.948 71.0946L158.834 71.0957L143.198 71.2343C139.056 71.2713 135.726 74.896 135.761 79.3302L135.83 88.2937C135.864 92.7285 139.25 96.2935 143.391 96.2565L145.042 96.2416L151.084 102.604L155.873 97.3897L157.025 96.1356L159.142 96.1168C163.284 96.0798 166.614 92.4551 166.579 88.0209L166.509 79.0575Z" fill="#444CE7"/>
<path d="M162.169 79.9333H140.933C140.791 79.9333 140.675 79.8096 140.675 79.6572C140.675 79.5048 140.791 79.3811 140.933 79.3811H162.169C162.312 79.3811 162.427 79.5048 162.427 79.6572C162.427 79.8102 162.312 79.9333 162.169 79.9333Z" fill="white"/>
<path d="M162.169 88.606H140.933C140.791 88.606 140.675 88.4823 140.675 88.3299C140.675 88.1775 140.791 88.0538 140.933 88.0538H162.169C162.312 88.0538 162.427 88.1775 162.427 88.3299C162.427 88.4823 162.312 88.606 162.169 88.606Z" fill="white"/>
<path d="M151.169 84.3181H140.933C140.791 84.3181 140.675 84.1944 140.675 84.042C140.675 83.8896 140.791 83.7659 140.933 83.7659H151.169C151.312 83.7659 151.427 83.8896 151.427 84.042C151.427 84.195 151.312 84.3181 151.169 84.3181Z" fill="white"/>
<path d="M162.169 84.3181H153.918C153.775 84.3181 153.66 84.1944 153.66 84.042C153.66 83.8896 153.775 83.7659 153.918 83.7659H162.169C162.312 83.7659 162.427 83.8896 162.427 84.042C162.427 84.195 162.312 84.3181 162.169 84.3181Z" fill="white"/>
<g opacity="0.43">
<path d="M48.0214 47.5093L44.9373 47.5363C37.2014 47.6048 30.8781 40.9457 30.8141 32.6626L30.6847 15.9208C30.6207 7.63765 36.8399 0.867024 44.5758 0.79855L73.8737 0.53846C73.097 0.407587 72.3008 0.339113 71.4885 0.346292L41.1586 0.615217C33.1834 0.685899 26.7719 7.66581 26.8384 16.2052L26.972 33.4644C27.038 42.0038 33.5568 49.9926 41.532 49.9219L45.2359 49.8937L57.1152 61.8302L68.2518 49.6541L59.3055 59.3934L48.0214 47.5093Z" fill="white"/>
<path d="M57.1223 62.2166L45.1343 50.1707L41.5335 50.1978C41.4994 50.1984 41.4643 50.1984 41.4303 50.1984C33.648 50.1984 26.7832 42.4095 26.714 33.467L26.5805 16.2072C26.548 12.0038 28.0462 8.03783 30.7991 5.04099C33.5521 2.04416 37.2307 0.374282 41.1565 0.339493L71.4858 0.0705678C72.2785 0.0628369 73.1011 0.129102 73.9128 0.26605L73.8747 0.814944L44.5778 1.07448C40.9053 1.10706 37.4644 2.66926 34.8888 5.47282C32.3133 8.27638 30.9115 11.9861 30.9425 15.9184L31.0719 32.6608C31.1349 40.7368 37.2916 47.2612 44.8202 47.2612C44.8589 47.2612 44.8965 47.2606 44.9357 47.2606L48.1265 47.2319L59.3023 59.0022L68.0676 49.4601L68.4358 49.8466L57.1223 62.2166ZM45.3369 49.6169L57.1074 61.4435L58.9609 59.4169L47.9171 47.7858L44.9403 47.8123C44.9001 47.8123 44.8604 47.8128 44.8207 47.8128C37.009 47.8128 30.6217 41.0439 30.5567 32.6646L30.4273 15.9223C30.3953 11.8425 31.8497 7.99365 34.5216 5.08517C36.4752 2.95806 38.9089 1.52011 41.5654 0.887284L41.1611 0.890597C37.3731 0.924282 33.8239 2.53563 31.1673 5.42699C28.5108 8.31835 27.0653 12.1457 27.0967 16.2017L27.2303 33.4615C27.2973 42.1113 33.9213 49.6456 41.4308 49.6456C41.4638 49.6456 41.4968 49.6456 41.5304 49.6451L45.3369 49.6169Z" fill="#9FBFFF"/>
<path d="M88.1198 15.4109C88.0558 7.12774 81.7325 0.468112 73.9966 0.537138L73.8738 0.538241L44.5759 0.79778C36.84 0.866254 30.6204 7.63688 30.6848 15.92L30.8143 32.6618C30.8782 40.945 37.2015 47.6046 44.9374 47.5356L48.0215 47.5085L59.3051 59.392L68.2514 49.6527L70.4035 47.3097L74.3576 47.2744C82.0935 47.2059 88.3126 40.4353 88.2487 32.1522L88.1198 15.4109Z" fill="white"/>
<path d="M59.3087 59.7832L47.9174 47.7859L44.9406 47.8125C44.9004 47.8125 44.8606 47.813 44.8209 47.813C37.0092 47.8136 30.6219 41.044 30.557 32.6648L30.4275 15.9224C30.3955 11.8427 31.8499 7.99383 34.5219 5.08535C37.1939 2.17632 40.7637 0.555589 44.5744 0.521904L73.9951 0.26071C77.8099 0.249666 81.3999 1.78425 84.1167 4.64469C86.8336 7.50568 88.3472 11.3281 88.3787 15.4083L88.5087 32.1507C88.5736 40.5725 82.2271 47.4817 74.3612 47.5513L70.5139 47.5855L59.3087 59.7832ZM48.1262 47.2321L59.302 59.0024L70.2942 47.0361L74.3556 47.0002C81.9368 46.9328 88.0538 40.2737 87.9909 32.1562L87.8609 15.4139C87.8305 11.4816 86.3715 7.79725 83.7531 5.03952C81.1348 2.28179 77.6799 0.78365 73.9971 0.814022L44.578 1.07411C40.9055 1.10669 37.4646 2.66889 34.8891 5.47245C32.3135 8.27601 30.9118 11.9857 30.9427 15.918L31.0722 32.6599C31.1351 40.7359 37.2918 47.2603 44.8204 47.2603C44.8591 47.2603 44.8967 47.2597 44.9359 47.2597L48.1262 47.2321Z" fill="#9FBFFF"/>
<path d="M48.71 26.7354C47.873 28.7073 45.7018 29.5792 43.8601 28.6836C42.0185 27.7873 41.2041 25.4625 42.0406 23.4906C42.8777 21.5187 45.0489 20.6467 46.8905 21.5424C48.7327 22.4386 49.547 24.7634 48.71 26.7354Z" fill="white"/>
<path d="M45.3694 29.3105C44.8279 29.3105 44.2776 29.1901 43.7531 28.9345C41.7851 27.9769 40.9115 25.4832 41.8057 23.3759C42.7 21.2693 45.029 20.3333 46.997 21.2914C47.9506 21.7552 48.6778 22.589 49.046 23.6388C49.4137 24.6885 49.3782 25.8288 48.9444 26.8499C48.2884 28.395 46.8604 29.3105 45.3694 29.3105ZM45.3802 21.467C44.0853 21.467 42.8454 22.2616 42.2756 23.604C41.4989 25.434 42.2575 27.5998 43.9672 28.4314C44.7949 28.8345 45.7201 28.8677 46.5716 28.5253C47.423 28.1835 48.0992 27.5065 48.4756 26.6202C48.8516 25.7339 48.8831 24.7432 48.5638 23.8315C48.2441 22.9198 47.6123 22.1959 46.7841 21.7928C46.3287 21.5719 45.8506 21.467 45.3802 21.467Z" fill="#9FBFFF"/>
<path d="M62.7231 26.3061C61.8861 28.278 59.7149 29.15 57.8732 28.2543C56.0316 27.3581 55.2172 25.0333 56.0543 23.0613C56.8913 21.0894 59.0625 20.2174 60.9042 21.1131C62.7458 22.0094 63.5601 24.3342 62.7231 26.3061Z" fill="white"/>
<path d="M59.3869 28.8833C58.8351 28.8833 58.2843 28.7568 57.7665 28.505C55.7985 27.5475 54.9248 25.0537 55.8196 22.9465C56.2528 21.926 57.0316 21.1469 58.012 20.7531C58.9924 20.3594 60.0579 20.3981 61.0109 20.8619C61.9645 21.3258 62.6917 22.1596 63.0599 23.2094C63.4276 24.2591 63.3915 25.3994 62.9583 26.4204C62.5251 27.4415 61.7463 28.2201 60.7659 28.6144C60.3178 28.7938 59.8516 28.8833 59.3869 28.8833ZM59.3936 21.0375C58.0986 21.0375 56.8588 21.8321 56.2889 23.1751C55.5122 25.0051 56.2709 27.1709 57.98 28.0025C58.8077 28.4051 59.7329 28.4388 60.5844 28.0969C61.4359 27.7546 62.112 27.0781 62.4885 26.1913C62.865 25.305 62.8964 24.3143 62.5767 23.4026C62.2574 22.4909 61.6251 21.767 60.7974 21.3639C60.342 21.143 59.8639 21.0375 59.3936 21.0375Z" fill="#9FBFFF"/>
<path d="M76.3994 25.8867C75.5623 27.8587 73.3911 28.7306 71.5495 27.8344C69.7078 26.9381 68.8935 24.6133 69.73 22.6414C70.567 20.6695 72.7382 19.7975 74.5799 20.6932C76.4215 21.59 77.2359 23.9148 76.3994 25.8867Z" fill="white"/>
<path d="M73.0589 28.4615C72.5174 28.4615 71.9671 28.3411 71.4426 28.0854C70.4891 27.6216 69.7619 26.7877 69.3937 25.738C69.026 24.6882 69.0615 23.5479 69.4953 22.5269C70.3895 20.4202 72.7191 19.4842 74.6866 20.4418C76.6541 21.3993 77.5277 23.8931 76.6334 26.0003C75.9779 27.5465 74.5499 28.4615 73.0589 28.4615ZM73.0703 20.6185C71.7748 20.6185 70.535 21.4131 69.9651 22.7561C69.5886 23.6424 69.5577 24.633 69.8769 25.5447C70.1967 26.4564 70.8284 27.1804 71.6567 27.5835C73.3663 28.4145 75.3885 27.6028 76.1652 25.7728C76.9418 23.9428 76.1832 21.777 74.4741 20.9454C74.0177 20.7234 73.5401 20.6185 73.0703 20.6185Z" fill="#9FBFFF"/>
<path d="M85.2168 51.8934L83.6639 51.9072C79.7691 51.942 76.5856 48.589 76.5531 44.4187L76.4881 35.9892C76.4556 31.819 79.5871 28.4102 83.4818 28.3754L98.1873 28.2451C97.8098 28.1838 97.4256 28.1446 97.0315 28.1479L81.7614 28.2832C77.7459 28.3185 74.518 31.8328 74.5515 36.1323L74.6186 44.8218C74.6516 49.1213 77.9337 53.143 81.9491 53.1077L83.814 53.0933L89.7949 59.103L95.4018 52.9724L90.8975 57.876L85.2168 51.8934Z" fill="white"/>
<path d="M89.8031 59.49L83.7134 53.371L81.9517 53.3842C79.9496 53.4024 78.0662 52.4758 76.6021 50.7778C75.1946 49.146 74.3782 46.9758 74.3617 44.8244L74.2947 36.1349C74.2607 31.6902 77.6093 28.0445 81.7609 28.0075L97.031 27.8716C97.3962 27.8689 97.7902 27.9015 98.2275 27.9721L98.1909 28.521L83.4855 28.6514C81.6706 28.6674 79.9703 29.4394 78.6974 30.8248C77.4246 32.2103 76.732 34.0437 76.747 35.9869L76.812 44.4163C76.8269 46.3596 77.5479 48.1802 78.8418 49.5431C80.1358 50.9053 81.8465 51.6514 83.6629 51.6309L85.3225 51.6166L90.8959 57.486L95.2193 52.7795L95.5875 53.1661L95.5865 53.1672L89.8031 59.49ZM83.9156 52.8165L89.7876 58.7169L90.5437 57.8902L85.1121 52.1699L83.666 52.1826C83.6453 52.1826 83.6247 52.1826 83.6036 52.1826C81.6742 52.1826 79.8563 51.3863 78.4788 49.9357C77.0863 48.4696 76.3107 46.5103 76.2947 44.4197L76.2297 35.9902C76.2137 33.8995 76.9589 31.9276 78.3282 30.4366C79.0677 29.6315 79.9419 29.0191 80.897 28.6232C77.4411 29.1124 74.7795 32.3031 74.8089 36.1294L74.8759 44.8189C74.8914 46.8345 75.6583 48.8699 76.9796 50.4023C78.3437 51.9849 80.092 52.8535 81.9465 52.8309L83.9156 52.8165Z" fill="#9FBFFF"/>
<path d="M105.405 35.733C105.373 31.5627 102.189 28.2097 98.2944 28.2445L98.1871 28.2456L83.4817 28.3759C79.5869 28.4107 76.4554 31.8195 76.4879 35.9897L76.5529 44.4192C76.5854 48.5895 79.769 51.9425 83.6637 51.9077L85.2166 51.8939L90.8978 57.8771L95.4022 52.9735L96.4857 51.7939L98.4764 51.7763C102.371 51.7415 105.503 48.3327 105.47 44.1624L105.405 35.733Z" fill="white"/>
<path d="M90.9006 58.2669L85.1116 52.1705L83.6655 52.1832C81.7155 52.2086 79.8708 51.4024 78.4788 49.9368C77.0864 48.4707 76.3107 46.5115 76.2947 44.4208L76.2297 35.9914C76.2138 33.9007 76.959 31.9288 78.3282 30.4378C79.6975 28.9474 81.5268 28.1169 83.4798 28.0998L98.292 27.9683C100.246 27.9258 102.087 28.7492 103.479 30.2153C104.871 31.6814 105.647 33.6406 105.663 35.7313L105.728 44.1607C105.744 46.2514 104.999 48.2239 103.63 49.7143C102.261 51.2053 100.431 52.0358 98.4787 52.0529L96.5953 52.0695L90.9006 58.2669ZM85.3215 51.6161L90.895 57.4855L96.3766 51.5178L98.4741 51.499C100.289 51.483 101.989 50.711 103.262 49.3255C104.535 47.94 105.227 46.1067 105.212 44.1635L105.147 35.734C105.132 33.7908 104.411 31.9702 103.117 30.6073C101.837 29.2594 100.147 28.5189 98.3539 28.5189C98.3348 28.5189 98.3157 28.5189 98.2961 28.5189L83.4834 28.6503C81.6686 28.6663 79.9683 29.4383 78.6954 30.8238C77.4226 32.2093 76.73 34.0426 76.745 35.9858L76.8099 44.4153C76.8249 46.3585 77.5459 48.1791 78.8398 49.542C80.1338 50.9043 81.8445 51.6503 83.6608 51.6299L85.3215 51.6161Z" fill="#9FBFFF"/>
<path d="M90.855 48.2016C89.8932 48.2016 88.9912 48.0519 88.1479 47.7538C87.3053 47.455 86.5724 46.9972 85.9489 46.381C85.3259 45.7641 84.836 44.9861 84.4801 44.0451C84.1237 43.1047 83.9458 41.9859 83.9458 40.6894C83.9458 39.4309 84.1211 38.3126 84.4713 37.3336C84.821 36.3551 85.3197 35.5317 85.9669 34.8641C86.6137 34.1965 87.3888 33.6885 88.2908 33.3389C89.1928 32.9894 90.1964 32.8149 91.3006 32.8149C92.4403 32.8149 93.429 32.9767 94.266 33.3008C95.103 33.625 95.8003 34.0894 96.3583 34.6929C96.9163 35.297 97.3315 36.0342 97.6048 36.9051C97.8776 37.7759 98.0143 38.7517 98.0143 39.8318C98.0143 41.357 97.7173 42.5492 97.1242 43.4068C96.5301 44.2649 95.6518 44.694 94.4883 44.694C94.1794 44.694 93.9096 44.6465 93.6781 44.5509C93.4465 44.4554 93.2505 44.3317 93.0902 44.1793C92.9298 44.0269 92.8081 43.8585 92.725 43.674C92.642 43.4902 92.5884 43.3024 92.5646 43.1113H92.4935C92.1845 43.6072 91.7812 43.9789 91.2825 44.2268C90.7838 44.4747 90.2676 44.599 89.7333 44.599C88.9257 44.599 88.3088 44.2909 87.8813 43.674C87.4538 43.0578 87.2403 42.2344 87.2403 41.2046C87.2403 40.4928 87.3408 39.8351 87.543 39.231C87.7446 38.6274 88.0329 38.1061 88.4068 37.6677C88.7807 37.2292 89.2377 36.8891 89.7782 36.6472C90.3181 36.4059 90.9205 36.2849 91.5858 36.2849C92.0133 36.2849 92.479 36.3484 92.9834 36.4755C93.2882 36.5522 93.5981 36.6499 93.9138 36.7687C94.2768 36.9051 94.4919 37.3093 94.4197 37.7141L93.8472 40.9373C93.823 41.1024 93.7993 41.2708 93.7761 41.4426C93.7518 41.6143 93.7405 41.7761 93.7405 41.9285C93.7405 42.2212 93.8029 42.4597 93.9277 42.6436C94.0525 42.8281 94.2748 42.9203 94.5956 42.9203C95.0463 42.9203 95.3996 42.6469 95.6549 42.1002C95.9102 41.5536 96.038 40.7976 96.038 39.8312C96.038 38.2552 95.6518 37.0221 94.8802 36.132C94.1082 35.2424 92.9153 34.7973 91.3006 34.7973C90.493 34.7973 89.757 34.9276 89.0928 35.1883C88.4275 35.4489 87.8607 35.8305 87.3919 36.3324C86.9226 36.8349 86.5611 37.4512 86.3058 38.1818C86.0505 38.9129 85.9231 39.7489 85.9231 40.6894C85.9231 41.6557 86.0505 42.4884 86.3058 43.187C86.5611 43.8861 86.9112 44.4648 87.3563 44.922C87.8014 45.3798 88.3238 45.7161 88.9236 45.9326C89.5229 46.1485 90.167 46.2567 90.8555 46.2567C91.33 46.2567 91.8736 46.1899 92.4847 46.0563C92.8792 45.9701 93.2872 45.8669 93.7085 45.7465C94.1072 45.6327 94.5213 45.8702 94.6502 46.2898L94.7327 46.5577C94.8725 47.011 94.6291 47.5008 94.199 47.6256C93.7101 47.7676 93.2366 47.8863 92.7787 47.9818C92.0773 48.1281 91.4362 48.2016 90.855 48.2016ZM90.1959 42.8054C90.6111 42.8054 90.9999 42.6309 91.3625 42.2808C91.7245 41.9313 91.971 41.3752 92.1015 40.6126L92.3697 39.0007C92.4527 38.5004 92.1036 38.0205 91.6291 38.0194C91.626 38.0194 91.6234 38.0194 91.6203 38.0194C91.2645 38.0194 90.9375 38.0989 90.641 38.258C90.3439 38.417 90.0891 38.6396 89.8751 38.9256C89.6616 39.2116 89.495 39.5485 89.3764 39.9361C89.2578 40.3238 89.1985 40.7462 89.1985 41.204C89.1985 41.6745 89.2753 42.0594 89.43 42.3576C89.5842 42.6563 89.84 42.8054 90.1959 42.8054Z" fill="white"/>
<path d="M90.8548 48.4779C89.8708 48.4779 88.9327 48.3222 88.0668 48.0157C87.1932 47.7059 86.4216 47.2244 85.7739 46.5833C85.1251 45.941 84.6094 45.1221 84.2406 44.1486C83.8734 43.1794 83.6873 42.0154 83.6873 40.689C83.6873 39.4023 83.8698 38.2399 84.2298 37.2344C84.5918 36.2222 85.1153 35.358 85.7873 34.6649C86.4562 33.9741 87.269 33.4407 88.2024 33.0785C89.1287 32.7201 90.171 32.5378 91.2999 32.5378C92.4644 32.5378 93.4917 32.7068 94.3525 33.0403C95.221 33.3766 95.9574 33.867 96.5407 34.4976C97.124 35.1294 97.5639 35.9096 97.8486 36.8164C98.1292 37.712 98.2715 38.7264 98.2715 39.8314C98.2715 41.4102 97.9548 42.6681 97.3303 43.571C96.6877 44.4992 95.731 44.9697 94.4876 44.9697C94.1488 44.9697 93.845 44.9156 93.5851 44.8085C93.3257 44.7013 93.1013 44.5589 92.9188 44.3849C92.7336 44.2088 92.5902 44.0094 92.4928 43.7929C92.4711 43.7449 92.451 43.6963 92.4329 43.6477C92.1426 43.9989 91.794 44.2767 91.3912 44.4766C90.861 44.7405 90.3035 44.8742 89.7331 44.8742C88.843 44.8742 88.1504 44.5257 87.6738 43.8377C87.2148 43.1756 86.9822 42.2898 86.9822 41.2042C86.9822 40.4626 87.0895 39.7673 87.2999 39.1373C87.5124 38.5022 87.8203 37.9451 88.2158 37.4807C88.6135 37.014 89.1055 36.6479 89.6779 36.3917C90.6119 35.9748 91.6986 35.8682 93.0415 36.2062C93.3546 36.2851 93.6769 36.3867 93.9982 36.5077C94.4778 36.6877 94.7676 37.2288 94.6722 37.7656L94.0302 41.4825C94.008 41.6404 93.9971 41.7884 93.9971 41.9287C93.9971 42.1601 94.0436 42.3462 94.1354 42.4815C94.2081 42.5897 94.3623 42.6438 94.5944 42.6438C94.942 42.6438 95.2132 42.4251 95.4231 41.9762C95.6593 41.4709 95.779 40.7492 95.779 39.8309C95.779 38.3344 95.4128 37.1526 94.6903 36.3199C93.9724 35.4927 92.8316 35.073 91.2999 35.073C90.5268 35.073 89.8141 35.1989 89.1808 35.4474C88.5542 35.6926 88.0132 36.0565 87.5733 36.527C87.1328 36.9986 86.7878 37.5872 86.5464 38.278C86.3035 38.9744 86.1803 39.785 86.1803 40.689C86.1803 41.6167 86.303 42.4235 86.5454 43.0861C86.7857 43.7444 87.1184 44.2949 87.5341 44.7223C87.9492 45.1492 88.4438 45.4678 89.0054 45.6705C89.5753 45.8759 90.1978 45.9802 90.8553 45.9802C91.3102 45.9802 91.8409 45.9145 92.4329 45.7853C92.8166 45.7014 93.2236 45.5987 93.6418 45.4794C94.173 45.3286 94.7233 45.6451 94.895 46.2033L94.9775 46.4712C95.0668 46.76 95.0405 47.0797 94.9053 47.3475C94.7692 47.6181 94.5423 47.8114 94.2664 47.8914C93.7723 48.035 93.288 48.1559 92.8275 48.252C92.1127 48.4022 91.4495 48.4779 90.8548 48.4779ZM91.2999 33.09C90.2308 33.09 89.2478 33.2612 88.3783 33.5981C87.5134 33.9333 86.7625 34.4264 86.1457 35.0625C85.5289 35.6987 85.0467 36.4955 84.712 37.4315C84.3747 38.3741 84.2035 39.4703 84.2035 40.689C84.2035 41.9442 84.3768 43.0381 84.7187 43.9409C85.0586 44.8388 85.531 45.5915 86.1241 46.1779C86.7177 46.7649 87.4258 47.2067 88.2293 47.4916C89.0426 47.7793 89.926 47.9257 90.8553 47.9257C91.417 47.9257 92.0472 47.8533 92.729 47.7114C93.1771 47.6175 93.649 47.4999 94.1312 47.3597C94.2694 47.3193 94.3829 47.2227 94.4515 47.0863C94.5206 46.9488 94.5335 46.792 94.4881 46.6446L94.4056 46.3767C94.319 46.0962 94.0415 45.9355 93.7749 46.0134C93.3463 46.136 92.9296 46.2414 92.5361 46.327C91.9105 46.464 91.3448 46.533 90.8553 46.533C90.1416 46.533 89.4639 46.4187 88.8409 46.194C88.2071 45.9653 87.6475 45.6047 87.1772 45.121C86.7068 44.6373 86.3329 44.0205 86.0648 43.2871C85.7992 42.5599 85.6646 41.6857 85.6646 40.689C85.6646 39.7193 85.7986 38.843 86.0637 38.0848C86.3309 37.32 86.7166 36.6645 87.2092 36.1371C87.7022 35.6092 88.3061 35.2022 89.0039 34.9289C89.6944 34.6583 90.467 34.5214 91.3004 34.5214C92.9817 34.5214 94.2493 35.0001 95.0688 35.9444C95.8826 36.8832 96.2952 38.1908 96.2952 39.8314C96.2952 40.8364 96.157 41.641 95.8852 42.2241C95.5098 43.0276 94.9765 43.1966 94.5954 43.1966C94.1885 43.1966 93.894 43.0651 93.7187 42.8056C93.5619 42.5742 93.4825 42.2793 93.4825 41.9287C93.4825 41.7625 93.4953 41.5852 93.5211 41.4013L93.5928 40.8944L94.1668 37.6618C94.2148 37.3912 94.0693 37.119 93.829 37.0284C93.5242 36.9135 93.22 36.818 92.925 36.7435C91.6888 36.4326 90.7104 36.5292 89.878 36.9014C89.3757 37.1261 88.9446 37.4459 88.598 37.8528C88.2489 38.2626 87.976 38.7574 87.7868 39.3234C87.5959 39.8933 87.499 40.5261 87.499 41.2036C87.499 42.1684 87.6975 42.9437 88.089 43.5086C88.468 44.0558 89.0065 44.322 89.7341 44.322C90.2282 44.322 90.713 44.2055 91.1751 43.9757C91.6274 43.751 91.9992 43.4086 92.2798 42.9575L92.3561 42.8343H92.7914L92.8213 43.074C92.8414 43.2352 92.8873 43.3959 92.958 43.5522C93.026 43.7029 93.1281 43.8437 93.2622 43.9713C93.3989 44.1011 93.5701 44.2093 93.7718 44.2921C93.9724 44.375 94.2138 44.4169 94.4891 44.4169C95.5758 44.4169 96.37 44.0326 96.9177 43.2413C97.4752 42.4362 97.7573 41.2881 97.7573 39.8309C97.7573 38.7861 97.6237 37.8308 97.3607 36.992C97.1018 36.1653 96.7032 35.4574 96.1756 34.8864C95.6464 34.3143 94.9745 33.8681 94.1787 33.56C93.3726 33.248 92.4046 33.09 91.2999 33.09ZM90.1957 43.0817C89.7465 43.0817 89.4036 42.8774 89.2045 42.4908C89.0297 42.1534 88.941 41.72 88.941 41.2036C88.941 40.7188 89.0049 40.2627 89.1318 39.8496C89.2592 39.4333 89.4412 39.0638 89.6738 38.7524C89.91 38.4365 90.1968 38.1869 90.5258 38.0102C90.8574 37.833 91.2256 37.743 91.6207 37.743C91.925 37.7435 92.204 37.8854 92.3958 38.1317C92.5954 38.3874 92.6784 38.7215 92.6238 39.0489L92.3556 40.6608C92.2148 41.4831 91.9389 42.0966 91.5356 42.4859C91.1256 42.8812 90.6748 43.0817 90.1957 43.0817ZM91.6284 38.2957C91.3061 38.2957 91.0152 38.3658 90.7563 38.5045C90.4948 38.6447 90.2659 38.8441 90.0766 39.0975C89.8827 39.3571 89.7295 39.668 89.6217 40.0214C89.5124 40.3792 89.4567 40.7768 89.4567 41.2036C89.4567 41.6255 89.5237 41.9685 89.6558 42.2236C89.7635 42.4323 89.9353 42.5295 90.1962 42.5295C90.549 42.5295 90.8739 42.381 91.19 42.0761C91.5072 41.7702 91.7285 41.2611 91.8481 40.5631L92.1163 38.9523C92.1441 38.7861 92.1018 38.616 92.0002 38.4857C91.9048 38.3636 91.7728 38.2963 91.6284 38.2957Z" fill="#9FBFFF"/>
</g>
<path d="M27.952 58.6731L24.868 58.7008C17.1321 58.7692 10.8087 52.1102 10.7448 43.827L10.6153 27.0846C10.5514 18.8015 16.7705 12.0309 24.5064 11.9624L53.8044 11.7023C53.0277 11.5709 52.2314 11.503 51.4191 11.5102L21.0897 11.7791C13.1145 11.8498 6.70303 18.8297 6.76956 27.369L6.90313 44.6283C6.96914 53.1676 13.4879 61.1564 21.4626 61.0857L25.1671 61.0576L37.0463 72.9941L48.1829 60.8179L39.2366 70.5572L27.952 58.6731Z" fill="#3A5CE8"/>
<path d="M68.0493 26.5746C67.9854 18.2915 61.6621 11.6319 53.9262 11.7009L53.8034 11.702L24.5055 11.9621C16.7696 12.0306 10.5499 18.8012 10.6144 27.0843L10.7438 43.8267C10.8078 52.1099 17.1311 58.7689 24.867 58.7005L27.9511 58.6729L39.2346 70.5564L48.181 60.8171L50.3331 58.4741L54.2872 58.4387C62.0231 58.3702 68.2427 51.5996 68.1783 43.3165L68.0493 26.5746Z" fill="#444CE7"/>
<path d="M25.3034 40.4763C24.7516 40.4763 24.2008 40.3498 23.683 40.098C21.715 39.1405 20.8413 36.6467 21.7361 34.5395C22.1693 33.5185 22.9481 32.7399 23.9285 32.3456C24.9083 31.9513 25.9738 31.99 26.9274 32.4544C27.881 32.9182 28.6082 33.7521 28.9764 34.8018C29.3441 35.8515 29.308 36.9919 28.8748 38.0129C28.4416 39.0339 27.6628 39.8125 26.6824 40.2068C26.2343 40.3868 25.7686 40.4763 25.3034 40.4763ZM25.307 32.6289C24.9032 32.6289 24.4989 32.7067 24.1095 32.863C23.258 33.2054 22.5819 33.8818 22.2054 34.7687C21.4287 36.5981 22.1874 38.7639 23.8965 39.5961C24.7242 39.9992 25.6489 40.0318 26.5009 39.6905C27.3524 39.3481 28.0285 38.6717 28.405 37.7848C28.7815 36.8985 28.8129 35.9079 28.4932 34.9962C28.1739 34.0845 27.5416 33.3605 26.7139 32.9574C26.2647 32.7382 25.7866 32.6289 25.307 32.6289Z" fill="white"/>
<path d="M39.3128 40.0447C38.7713 40.0447 38.221 39.9243 37.6965 39.6686C35.7285 38.7111 34.8549 36.2173 35.7497 34.1101C36.1829 33.089 36.9616 32.3104 37.942 31.9162C38.9219 31.5224 39.9874 31.5611 40.941 32.0249C42.909 32.9825 43.7826 35.4762 42.8883 37.5835C42.2318 39.1296 40.8038 40.0447 39.3128 40.0447ZM39.32 32.1994C38.9162 32.1994 38.5119 32.2773 38.1225 32.4336C37.2711 32.7759 36.5949 33.4524 36.2185 34.3392C35.4418 36.1693 36.2004 38.335 37.9095 39.1666C39.6186 39.9983 41.6413 39.186 42.418 37.356C43.1942 35.5259 42.4355 33.3602 40.7264 32.5286C40.2777 32.3093 39.7997 32.1994 39.32 32.1994Z" fill="white"/>
<path d="M52.9926 39.6279C52.4407 39.6279 51.8899 39.5014 51.3722 39.2491C50.4186 38.7852 49.6914 37.9514 49.3232 36.9017C48.9555 35.8519 48.9916 34.7116 49.4248 33.6906C49.858 32.6695 50.6367 31.8909 51.6171 31.4966C52.597 31.1035 53.6625 31.141 54.6161 31.6054C55.5697 32.0693 56.2968 32.9031 56.6651 33.9529C57.0328 35.0026 56.9967 36.1429 56.5635 37.1639C56.1303 38.185 55.3515 38.9636 54.3711 39.3579C53.9235 39.5379 53.4572 39.6279 52.9926 39.6279ZM52.9962 31.7799C52.5924 31.7799 52.188 31.8578 51.7987 32.0141C50.9472 32.3559 50.2711 33.0329 49.8946 33.9192C49.5181 34.8055 49.4872 35.7961 49.8064 36.7078C50.1256 37.6195 50.7579 38.3435 51.5857 38.7466C52.4144 39.1491 53.3386 39.1828 54.1901 38.841C55.0416 38.4992 55.7177 37.8222 56.0942 36.9359C56.4706 36.0496 56.5016 35.0589 56.1823 34.1472C55.8631 33.2355 55.2308 32.5116 54.4031 32.1085C53.9534 31.8898 53.4753 31.7799 52.9962 31.7799Z" fill="white"/>
<path d="M65.1467 63.0573L63.5938 63.0711C59.6991 63.1059 56.5155 59.7529 56.483 55.5826L56.418 47.1532C56.3855 42.9829 59.517 39.5741 63.4118 39.5393L78.1172 39.409C77.7397 39.3477 77.3555 39.3085 76.9615 39.3118L61.6913 39.4471C57.6759 39.4824 54.4479 42.9967 54.4815 47.2962L54.5485 55.9857C54.5815 60.2852 57.8636 64.3069 61.879 64.2716L63.7439 64.2572L69.7248 70.2669L75.3235 64.1457L70.8279 69.0399L65.1467 63.0573Z" fill="#E29837"/>
<path d="M85.3354 46.8957C85.3029 42.7254 82.1193 39.3724 78.2245 39.4072L78.1178 39.4083L63.4124 39.5386C59.5176 39.5734 56.3861 42.9822 56.4186 47.1525L56.4836 55.5819C56.5161 59.7522 59.6996 63.1052 63.5944 63.0704L65.1473 63.0566L70.8285 69.0398L75.3241 64.1456L76.4159 62.9572L78.4066 62.9396C82.3014 62.9048 85.4329 59.496 85.4004 55.3257L85.3354 46.8957Z" fill="#FFB54A"/>
<path d="M70.7845 59.3648C69.8226 59.3648 68.9206 59.2151 68.0774 58.9169C67.2347 58.6182 66.5019 58.1604 65.8784 57.5441C65.2554 56.9273 64.7654 56.1493 64.409 55.2083C64.0527 54.2679 63.8748 53.1491 63.8748 51.8525C63.8748 50.594 64.0501 49.4758 64.4003 48.4967C64.7499 47.5182 65.2486 46.6949 65.8959 46.0273C66.5426 45.3597 67.3177 44.8516 68.2197 44.5021C69.1218 44.1525 70.1254 43.978 71.2295 43.978C72.3693 43.978 73.3579 44.1398 74.195 44.464C75.032 44.7881 75.7292 45.2525 76.2873 45.8561C76.8453 46.4602 77.2604 47.1974 77.5338 48.0682C77.8066 48.9391 77.9433 49.9148 77.9433 50.9949C77.9433 52.5201 77.6462 53.7124 77.0531 54.5699C76.459 55.4281 75.5807 55.8571 74.4172 55.8571C74.1083 55.8571 73.8386 55.8096 73.607 55.7141C73.3755 55.6186 73.1795 55.4949 73.0196 55.3419C72.8592 55.1895 72.7375 55.0211 72.6545 54.8366C72.5709 54.6528 72.5178 54.465 72.4941 54.274H72.4229C72.114 54.7698 71.7107 55.1415 71.212 55.3894C70.7133 55.6374 70.197 55.7616 69.6628 55.7616C68.8551 55.7616 68.2383 55.4535 67.8108 54.8366C67.3832 54.2204 67.1697 53.397 67.1697 52.3672C67.1697 51.6554 67.2703 50.9977 67.4725 50.3936C67.6741 49.79 67.9624 49.2687 68.3363 48.8303C68.7102 48.3918 69.1671 48.0517 69.7076 47.8104C70.2476 47.569 70.85 47.4481 71.5152 47.4481C71.9428 47.4481 72.4085 47.5122 72.9129 47.6386C73.2177 47.7154 73.5276 47.8131 73.8432 47.9318C74.2063 48.0682 74.4214 48.4725 74.3492 48.8778L73.7767 52.101C73.7525 52.2661 73.7287 52.4345 73.7055 52.6063C73.6813 52.778 73.67 52.9398 73.67 53.0928C73.67 53.3854 73.7324 53.624 73.8572 53.8079C73.9815 53.9923 74.2042 54.0845 74.525 54.0845C74.9758 54.0845 75.329 53.8112 75.5843 53.2645C75.8396 52.7178 75.9675 51.9619 75.9675 50.9955C75.9675 49.4195 75.5812 48.1864 74.8102 47.2962C74.0382 46.4066 72.8453 45.9616 71.2306 45.9616C70.4229 45.9616 69.687 46.0919 69.0227 46.3525C68.3575 46.6132 67.7907 46.9942 67.3219 47.4967C66.8526 47.9992 66.491 48.6155 66.2358 49.346C65.9805 50.0772 65.8531 50.9132 65.8531 51.8536C65.8531 52.82 65.9805 53.6527 66.2358 54.3513C66.491 55.0504 66.8412 55.6291 67.2868 56.0863C67.7319 56.5441 68.2543 56.8804 68.8541 57.0968C69.4534 57.3128 70.0975 57.421 70.786 57.421C71.2605 57.421 71.8041 57.3542 72.4152 57.2205C72.8097 57.1344 73.2177 57.0311 73.639 56.9107C74.0377 56.797 74.4518 57.035 74.5807 57.4541L74.6632 57.7219C74.803 58.1753 74.5596 58.6651 74.1295 58.7899C73.6406 58.9318 73.1671 59.0506 72.7091 59.1461C72.0072 59.2919 71.3662 59.3648 70.7845 59.3648ZM70.1259 53.9686C70.541 53.9686 70.9299 53.7941 71.2925 53.444C71.6545 53.0944 71.901 52.5384 72.0315 51.7758L72.2997 50.1639C72.3827 49.6636 72.0336 49.1837 71.5591 49.1826C71.556 49.1826 71.5529 49.1826 71.5503 49.1826C71.1945 49.1826 70.8675 49.2621 70.5709 49.4211C70.2739 49.5802 70.0191 49.8027 69.8051 50.0888C69.5916 50.3748 69.425 50.7117 69.3064 51.0993C69.1878 51.487 69.1285 51.9094 69.1285 52.3672C69.1285 52.8377 69.2053 53.2225 69.36 53.5207C69.5142 53.8195 69.7695 53.9686 70.1259 53.9686Z" fill="white"/>
</svg>
