<svg width="255" height="258" viewBox="0 0 255 258" fill="none" xmlns="http://www.w3.org/2000/svg">
<path d="M249.73 223.492C250.832 223.492 251.725 222.586 251.725 221.469C251.725 220.353 250.832 219.447 249.73 219.447C248.629 219.447 247.736 220.353 247.736 221.469C247.736 222.586 248.629 223.492 249.73 223.492Z" fill="#444CE7"/>
<path opacity="0.47" d="M239.331 248.515C240.432 248.515 241.326 247.609 241.326 246.492C241.326 245.375 240.432 244.47 239.331 244.47C238.229 244.47 237.336 245.375 237.336 246.492C237.336 247.609 238.229 248.515 239.331 248.515Z" fill="#9FBFFF"/>
<path d="M2.82731 38.0912C3.68347 38.0912 4.37752 37.3875 4.37752 36.5195C4.37752 35.6514 3.68347 34.9478 2.82731 34.9478C1.97115 34.9478 1.2771 35.6514 1.2771 36.5195C1.2771 37.3875 1.97115 38.0912 2.82731 38.0912Z" fill="#9FBFFF"/>
<path d="M122.267 16.4451C122.267 17.9937 121.029 19.2487 119.501 19.2487C117.974 19.2487 116.736 17.9937 116.736 16.4451C116.736 14.8965 117.974 13.6414 119.501 13.6414C121.029 13.6414 122.267 14.8971 122.267 16.4451Z" fill="#444CE7"/>
<path d="M5.43329 57.8653C5.43329 59.3249 4.26664 60.5077 2.827 60.5077C1.38792 60.5077 0.220703 59.3249 0.220703 57.8653C0.220703 56.4062 1.38735 55.2228 2.827 55.2228C4.26664 55.2228 5.43329 56.4062 5.43329 57.8653Z" fill="#444CE7"/>
<path d="M22.7348 34.1095C23.2752 34.1095 23.7134 33.6653 23.7134 33.1174C23.7134 32.5694 23.2752 32.1252 22.7348 32.1252C22.1943 32.1252 21.7562 32.5694 21.7562 33.1174C21.7562 33.6653 22.1943 34.1095 22.7348 34.1095Z" fill="#1B1B25"/>
<path d="M250.583 41.8518C249.87 41.3711 249.677 40.3951 250.151 39.6722C250.625 38.9494 251.588 38.7529 252.301 39.2337C253.014 39.7144 253.207 40.6904 252.733 41.4132C252.259 42.1355 251.296 42.332 250.583 41.8518Z" fill="#9FBFFF"/>
<path d="M43.05 247.802C42.3371 247.321 42.1433 246.345 42.6175 245.622C43.0916 244.899 44.0537 244.703 44.7672 245.183C45.4802 245.664 45.674 246.64 45.1998 247.363C44.7256 248.086 43.763 248.282 43.05 247.802Z" fill="#9FBFFF"/>
<path d="M219.667 31.3003C221.078 31.0094 221.989 29.6144 221.702 28.1843C221.415 26.7543 220.039 25.8308 218.629 26.1216C217.218 26.4125 216.307 27.8075 216.594 29.2376C216.881 30.6676 218.257 31.5911 219.667 31.3003Z" fill="#444CE7"/>
<path d="M227.922 60.0604C227.472 59.7571 227.35 59.1411 227.649 58.6852C227.948 58.2287 228.556 58.105 229.006 58.4084C229.456 58.7118 229.578 59.3277 229.279 59.7836C228.98 60.2401 228.372 60.3638 227.922 60.0604Z" fill="#1B1B25"/>
<path opacity="0.41" d="M31.1767 7.89777C32.2442 2.36618 38.538 -1.04131 45.2341 0.287132C51.9302 1.61557 61.146 8.09943 60.0785 13.631C59.011 19.1626 48.4622 17.3794 42.0835 18.8882C33.1869 20.9932 30.1093 13.4288 31.1767 7.89777Z" fill="#9FBFFF"/>
<g opacity="0.18">
<path opacity="0.15" d="M238.352 226.408C248.9 212.5 255.835 193.541 254.919 175.802C253.968 157.399 246.763 140.607 249.142 121.596C250.502 110.725 254.238 100.163 254.427 89.2057C255.322 37.4359 172.663 -4.13282 141.707 45.4984C139.584 48.9007 137.858 52.6416 134.993 55.4285C131.423 58.9013 126.198 60.5377 121.318 59.7108C113.45 58.3783 106.662 52.4382 98.9869 50.0483C92.0395 47.8849 84.807 46.8165 77.5415 46.802C63.1189 46.7737 48.7104 50.8856 36.2597 58.2246C11.3902 72.8837 -4.05605 100.429 0.935406 129.812C3.88879 147.201 14.0358 162.463 25.3843 175.84C47.0896 201.425 74.0593 222.236 103.596 237.795C127.462 250.367 153.954 259.708 180.779 257.737C204.494 255.994 224.999 244.014 238.352 226.408Z" fill="#444CE7"/>
</g>
<g opacity="0.47">
<path opacity="0.3" d="M253.853 173.928C256.139 157.748 253.214 139.144 244.468 125.172C235.393 110.677 221.97 100.39 215.323 83.8567C211.522 74.4028 209.788 64.0977 204.999 55.117C182.368 12.685 96.5261 17.2811 93.7939 71.9192C93.6063 75.6647 93.8936 79.501 92.8255 83.0916C91.4948 87.5658 87.992 91.3171 83.6582 92.9096C76.6714 95.4769 68.4815 93.8041 61.1744 95.4237C54.5598 96.8897 48.2079 99.3767 42.3046 102.735C30.5862 109.401 20.7469 119.42 13.9528 131.151C0.38159 154.582 0.273304 184.101 17.581 205.634C27.8232 218.377 42.9446 226.059 58.1903 231.652C87.3502 242.352 118.628 246.735 149.62 245.664C174.663 244.8 200.378 240.095 221.26 226.055C239.721 213.643 250.959 194.41 253.853 173.928Z" fill="#444CE7"/>
</g>
<g opacity="0.47">
<path opacity="0.4" d="M240.086 174.967C241.894 162.167 239.581 147.451 232.661 136.398C225.483 124.932 214.865 116.794 209.606 103.716C206.599 96.2372 205.228 88.0852 201.439 80.9807C183.537 47.4144 115.632 51.0501 113.47 94.272C113.322 97.2351 113.548 100.27 112.704 103.11C111.651 106.649 108.88 109.617 105.452 110.877C99.9248 112.908 93.4464 111.584 87.6662 112.866C82.4337 114.025 77.4086 115.993 72.7391 118.649C63.4692 123.922 55.6862 131.848 50.3112 141.127C39.576 159.662 39.4899 183.014 53.1808 200.048C61.2829 210.129 73.2446 216.205 85.305 220.63C108.372 229.094 133.114 232.561 157.631 231.714C177.441 231.03 197.783 227.309 214.302 216.202C228.907 206.383 237.796 191.169 240.086 174.967Z" fill="#444CE7"/>
</g>
<g opacity="0.31">
<path d="M239.86 77.6481C239.412 79.604 237.486 80.8221 235.557 80.3685C233.628 79.9149 232.427 77.9618 232.874 76.0064C233.321 74.0505 235.248 72.8324 237.176 73.286C239.106 73.739 240.307 75.6921 239.86 77.6481Z" fill="#9FBFFF"/>
</g>
<g opacity="0.31">
<path d="M248.05 20.1647C247.551 23.9299 244.136 26.5718 240.422 26.0662C236.709 25.5605 234.103 22.0976 234.602 18.333C235.1 14.5679 238.515 11.926 242.229 12.4316C245.943 12.9378 248.548 16.3996 248.05 20.1647Z" fill="#9FBFFF"/>
</g>
<g opacity="0.31">
<path d="M25.9809 250.301C30.8886 246.54 31.8597 239.457 28.1498 234.481C24.4399 229.505 17.4539 228.521 12.5462 232.282C7.63843 236.044 6.66736 243.126 10.3773 248.102C14.0871 253.078 21.0731 254.063 25.9809 250.301Z" fill="#9FBFFF"/>
</g>
<g opacity="0.31">
<path d="M20.2033 103.931C20.0312 105.231 18.852 106.144 17.5697 105.969C16.2873 105.794 15.3874 104.598 15.5601 103.298C15.7322 101.998 16.9114 101.086 18.1938 101.261C19.4755 101.435 20.3755 102.631 20.2033 103.931Z" fill="#9FBFFF"/>
</g>
</svg>
